<?xml version="1.0" encoding="UTF-8"?>
<svg xmlns="http://www.w3.org/2000/svg" width="1200" height="400" viewBox="0 0 1200 400" role="img" aria-labelledby="title desc">
  <title id="title">Museek · 拾音</title>
  <desc id="desc">Cross-platform desktop music aggregator / 跨平台桌面音乐聚合应用</desc>
  <defs>
    <linearGradient id="bg" x1="0" y1="0" x2="1" y2="1">
      <stop offset="0%" stop-color="#0A0A0C"/>
      <stop offset="55%" stop-color="#101014"/>
      <stop offset="100%" stop-color="#0C1210"/>
    </linearGradient>
    <linearGradient id="panel" x1="0" y1="0" x2="0" y2="1">
      <stop offset="0%" stop-color="#1A1A1F"/>
      <stop offset="100%" stop-color="#121216"/>
    </linearGradient>
    <linearGradient id="play" x1="0" y1="0" x2="1" y2="1">
      <stop offset="0%" stop-color="#2BED8B"/>
      <stop offset="100%" stop-color="#12C268"/>
    </linearGradient>
  </defs>
  <rect width="1200" height="400" rx="28" fill="url(#bg)"/>
  <!-- Soft wash using official equalizer proportions -->
  <svg x="820" y="48" width="200" height="200" viewBox="0 0 1024 1024" opacity="0.07" aria-hidden="true">
    <g fill="#FFFFFF">
      <rect x="220" y="467" width="64" height="90" rx="32"/>
      <rect x="324" y="347" width="64" height="330" rx="32"/>
      <rect x="428" y="242" width="64" height="540" rx="32"/>
      <rect x="532" y="407" width="64" height="210" rx="32"/>
      <rect x="636" y="317" width="64" height="390" rx="32"/>
      <rect x="740" y="467" width="64" height="90" rx="32"/>
    </g>
  </svg>
  <!-- Official Museek mark (same geometry as app-icon.svg) -->
  <svg x="56" y="44" width="56" height="56" viewBox="0 0 1024 1024" aria-hidden="true">
    <rect x="80" y="80" width="864" height="864" rx="200" fill="#000000"/>
    <g fill="#FFFFFF">
      <rect x="220" y="467" width="64" height="90" rx="32"/>
      <rect x="324" y="347" width="64" height="330" rx="32"/>
      <rect x="428" y="242" width="64" height="540" rx="32"/>
      <rect x="532" y="407" width="64" height="210" rx="32"/>
      <rect x="636" y="317" width="64" height="390" rx="32"/>
      <rect x="740" y="467" width="64" height="90" rx="32"/>
    </g>
  </svg>
  <text x="128" y="68" fill="#7A7A86" font-family="-apple-system,BlinkMacSystemFont,Segoe UI,PingFang SC,Microsoft YaHei,sans-serif" font-size="14" font-weight="600" letter-spacing="1.6">DESKTOP MUSIC AGGREGATOR · 桌面音乐聚合</text>
  <text x="56" y="140" fill="#F4F4F8" font-family="-apple-system,BlinkMacSystemFont,Segoe UI,PingFang SC,Microsoft YaHei,sans-serif" font-size="58" font-weight="750">Museek · 拾音</text>
  <text x="56" y="186" fill="#C8C8D0" font-family="-apple-system,BlinkMacSystemFont,Segoe UI,PingFang SC,Microsoft YaHei,sans-serif" font-size="20" font-weight="500">Every melody, one search.</text>
  <text x="56" y="214" fill="#8A8A96" font-family="-apple-system,BlinkMacSystemFont,Segoe UI,PingFang SC,Microsoft YaHei,sans-serif" font-size="17">万千旋律，一拾即得</text>
  <text x="56" y="246" fill="#6E6E7A" font-family="-apple-system,BlinkMacSystemFont,Segoe UI,PingFang SC,Microsoft YaHei,sans-serif" font-size="14">Search · Charts · Playlists · Lyrics · Download</text>
  <g transform="translate(56 272)" font-family="-apple-system,BlinkMacSystemFont,Segoe UI,PingFang SC,Microsoft YaHei,sans-serif" font-size="13" font-weight="600">
    <rect width="78" height="30" rx="15" fill="#1C1C22" stroke="#2E2E36"/>
    <circle cx="16" cy="15" r="4" fill="#E60026"/>
    <text x="28" y="19" fill="#E8E8EE">网易云</text>
    <rect x="90" width="66" height="30" rx="15" fill="#1C1C22" stroke="#2E2E36"/>
    <circle cx="106" cy="15" r="4" fill="#F5A623"/>
    <text x="118" y="19" fill="#E8E8EE">酷我</text>
    <rect x="168" width="66" height="30" rx="15" fill="#1C1C22" stroke="#2E2E36"/>
    <circle cx="184" cy="15" r="4" fill="#2D9CDB"/>
    <text x="196" y="19" fill="#E8E8EE">酷狗</text>
    <rect x="246" width="84" height="30" rx="15" fill="#1C1C22" stroke="#2E2E36"/>
    <circle cx="262" cy="15" r="4" fill="#2BC275"/>
    <text x="274" y="19" fill="#E8E8EE">QQ音乐</text>
    <rect x="342" width="66" height="30" rx="15" fill="#1C1C22" stroke="#2E2E36"/>
    <circle cx="358" cy="15" r="4" fill="#E54BA0"/>
    <text x="370" y="19" fill="#E8E8EE">咪咕</text>
  </g>
  <text x="56" y="360" fill="#5C5C68" font-family="ui-monospace,SFMono-Regular,Menlo,monospace" font-size="13">Tauri 2 · React 19 · lx-music sources · MIT</text>
  <g transform="translate(720 56)">
    <rect width="424" height="288" rx="22" fill="url(#panel)" stroke="#2A2A32" stroke-width="1"/>
    <text x="24" y="36" fill="#7A7A86" font-family="ui-monospace,SFMono-Regular,Menlo,monospace" font-size="12" letter-spacing="1.2">NOW PLAYING · 正在播放</text>
    <text x="24" y="68" fill="#F4F4F8" font-family="-apple-system,BlinkMacSystemFont,Segoe UI,PingFang SC,Microsoft YaHei,sans-serif" font-size="20" font-weight="700">Import source → Play</text>
    <text x="24" y="94" fill="#8A8A96" font-family="-apple-system,BlinkMacSystemFont,Segoe UI,PingFang SC,Microsoft YaHei,sans-serif" font-size="14">导入音源 → 开始播放</text>
    <text x="24" y="122" fill="#6E6E7A" font-family="-apple-system,BlinkMacSystemFont,Segoe UI,PingFang SC,Microsoft YaHei,sans-serif" font-size="13">Scripts resolve URLs · APIs discover music</text>
    <!-- Equalizer motif matching app-icon bar proportions -->
    <svg x="24" y="138" width="96" height="96" viewBox="0 0 1024 1024" aria-hidden="true">
      <g fill="#FFFFFF">
        <rect x="220" y="467" width="64" height="90" rx="32"/>
        <rect x="324" y="347" width="64" height="330" rx="32"/>
        <rect x="428" y="242" width="64" height="540" rx="32"/>
        <rect x="532" y="407" width="64" height="210" rx="32"/>
        <rect x="636" y="317" width="64" height="390" rx="32"/>
        <rect x="740" y="467" width="64" height="90" rx="32"/>
      </g>
    </svg>
    <g transform="translate(200 148)">
      <circle cx="40" cy="40" r="40" fill="url(#play)"/>
      <path d="M34 24 L60 40 L34 56 Z" fill="#06140C"/>
    </g>
    <g transform="translate(24 248)" font-family="-apple-system,BlinkMacSystemFont,Segoe UI,sans-serif" font-size="12" font-weight="600">
      <rect width="110" height="28" rx="8" fill="#222228"/>
      <text x="14" y="18" fill="#C8C8D0">Search API</text>
      <path d="M118 14 H138" stroke="#3A3A44" stroke-width="2"/>
      <rect x="138" width="110" height="28" rx="8" fill="#222228"/>
      <text x="152" y="18" fill="#C8C8D0">Source script</text>
      <path d="M256 14 H276" stroke="#3A3A44" stroke-width="2"/>
      <rect x="276" width="110" height="28" rx="8" fill="#143D28" stroke="#1FDD7A" stroke-width="1"/>
      <text x="304" y="18" fill="#2BED8B">Audio URL</text>
    </g>
  </g>
</svg>
